<?xml version="1.0" encoding="UTF-8"?>
<svg xmlns="http://www.w3.org/2000/svg" viewBox="65 150 245 75" role="img" aria-label="mem9">
  <g transform="translate(69.688 128.300)">
    <path d="M15.912 86L5.382 86L5.382 31.400L17.940 31.400L34.632 65.486L34.632 65.486L51.168 31.400L63.726 31.400L63.726 86L53.196 86L53.196 49.340L53.196 49.340L38.766 78.356L30.420 78.356L15.912 49.340L15.912 49.340L15.912 86ZM107.250 86L71.370 86L71.370 31.400L107.250 31.400L107.250 39.902L81.900 39.902L81.900 54.176L104.910 54.176L104.910 62.366L81.900 62.366L81.900 77.498L107.250 77.498L107.250 86ZM124.254 86L113.724 86L113.724 31.400L126.282 31.400L142.974 65.486L142.974 65.486L159.510 31.400L172.068 31.400L172.068 86L161.538 86L161.538 49.340L161.538 49.340L147.108 78.356L138.762 78.356L124.254 49.340L124.254 49.340L124.254 86Z" fill="#111111"/>
    <path d="M207.558 86.936L207.558 86.936Q201.864 86.936 197.886 84.713Q193.908 82.490 191.763 78.902Q189.618 75.314 189.150 71.180L189.150 71.180L198.978 71.180Q199.680 74.612 201.903 76.445Q204.126 78.278 207.714 78.278L207.714 78.278Q211.068 78.278 213.525 76.289Q215.982 74.300 217.386 70.283Q218.790 66.266 218.946 60.338L218.946 60.338Q218.946 60.104 218.946 59.870Q218.946 59.636 218.946 59.480L218.946 59.480Q217.854 61.508 215.748 63.185Q213.642 64.862 211.029 65.798Q208.416 66.734 205.452 66.734L205.452 66.734Q201.006 66.734 197.028 64.550Q193.050 62.366 190.632 58.388Q188.214 54.410 188.214 48.950L188.214 48.950Q188.214 43.958 190.632 39.746Q193.050 35.534 197.340 32.999Q201.630 30.464 207.246 30.464L207.246 30.464Q213.486 30.464 217.698 32.726Q221.910 34.988 224.445 38.810Q226.980 42.632 228.111 47.351Q229.242 52.070 229.242 56.906L229.242 56.906Q229.242 66.032 226.707 72.779Q224.172 79.526 219.336 83.231Q214.500 86.936 207.558 86.936ZM207.948 57.842L207.948 57.842Q210.756 57.842 212.901 56.672Q215.046 55.502 216.333 53.435Q217.620 51.368 217.620 48.716L217.620 48.716Q217.620 45.986 216.333 43.880Q215.046 41.774 212.862 40.643Q210.678 39.512 207.870 39.512L207.870 39.512Q205.140 39.512 202.956 40.682Q200.772 41.852 199.563 43.880Q198.354 45.908 198.354 48.638L198.354 48.638Q198.354 51.368 199.563 53.435Q200.772 55.502 202.956 56.672Q205.140 57.842 207.948 57.842Z" fill="#626262"/>
  </g>
</svg>
